<svg class="svg" version="1.1" xmlns="http://www.w3.org/2000/svg" xmlns:xlink="http://www.w3.org/1999/xlink" x="0px" y="0px" viewBox="0 0 1000 1000" enable-background="new 0 0 1000 1000" xml:space="preserve">
<g><path d="M500,990c-168.3,1.4-325.1-75.2-415.2-197.3L10,867.5v-245h245l-67.3,67.3c54,89.4,144.4,153.7,251.1,171.9V491.3C333.2,464,255,369,255,255c0-135.3,109.7-245,245-245c135.3,0,245,109.7,245,245c0,114-78.2,209-183.8,236.3v370.4c106.7-18.2,197.1-82.5,251.1-171.9L745,622.5h245v245l-74.8-74.8C825.1,914.8,668.3,991.4,500,990z M622.5,255c0-67.7-54.8-122.5-122.5-122.5c-67.6,0-122.5,54.8-122.5,122.5S432.3,377.5,500,377.5C567.6,377.5,622.5,322.7,622.5,255L622.5,255z"/></g>
</svg>