<?xml version="1.0" encoding="UTF-8"?>
<svg width="2560px" height="2560px" class="svg" viewBox="0 0 2560 2560" version="1.1" xmlns="http://www.w3.org/2000/svg" xmlns:xlink="http://www.w3.org/1999/xlink">
    <title>GitBundle</title>
    <defs>
        <linearGradient x1="36.8141664%" y1="7.52492868%" x2="79.6163697%" y2="82.8523469%" id="linearGradient-1">
            <stop stop-color="#4982FF" stop-opacity="0.5" offset="0%"></stop>
            <stop stop-color="#2994FF" offset="100%"></stop>
        </linearGradient>
        <path d="M1567.43531,433.916075 L2442.62063,939.20455 C2470.46672,955.281502 2487.62063,984.992934 2487.62063,1017.14684 L2487.62063,2027.72379 C2487.62063,2059.87769 2470.46672,2089.58912 2442.62063,2105.66607 L1567.43531,2610.95455 C1539.58922,2627.0315 1505.28141,2627.0315 1477.43531,2610.95455 L602.25,2105.66607 C574.403903,2089.58912 557.25,2059.87769 557.25,2027.72379 L557.25,1017.14684 C557.25,984.992934 574.403903,955.281502 602.25,939.20455 L1477.43531,433.916075 C1505.28141,417.839123 1539.58922,417.839123 1567.43531,433.916075 Z" id="path-2"></path>
        <linearGradient x1="50%" y1="0%" x2="50%" y2="90.2752669%" id="linearGradient-4">
            <stop stop-color="#2563EB" stop-opacity="0.5" offset="0%"></stop>
            <stop stop-color="#2563EB" offset="100%"></stop>
        </linearGradient>
        <linearGradient x1="50%" y1="0%" x2="50%" y2="100%" id="linearGradient-5">
            <stop stop-color="#2563EB" stop-opacity="0.5" offset="0%"></stop>
            <stop stop-color="#2563EB" offset="100%"></stop>
        </linearGradient>
        <linearGradient x1="39.461858%" y1="41.9482066%" x2="64.0438063%" y2="59.0917607%" id="linearGradient-6">
            <stop stop-color="#2994FF" offset="0%"></stop>
            <stop stop-color="#2563EB" stop-opacity="0.5" offset="100%"></stop>
        </linearGradient>
    </defs>
    <g id="logo2-2560" stroke="none" stroke-width="1" fill="none" fill-rule="evenodd">
        <g id="矩形备份" transform="translate(1226.524993, 1279.864593) rotate(-90.000000) translate(-1226.524993, -1279.864593) translate(-295.910319, -242.570720)">
            <mask id="mask-3" fill="white">
                <use xlink:href="#path-2" transform="translate(1522.435313, 1522.435313) rotate(-330.000000) translate(-1522.435313, -1522.435313) "></use>
            </mask>
            <use id="蒙版" fill="url(#linearGradient-1)" transform="translate(1522.435313, 1522.435313) rotate(-330.000000) translate(-1522.435313, -1522.435313) " xlink:href="#path-2"></use>
            <g id="编组-12" mask="url(#mask-3)">
                <g transform="translate(-42.575688, -5.250165)">
                    <rect id="矩形" fill="url(#linearGradient-4)" transform="translate(1113.140578, 1809.650741) rotate(-300.000000) translate(-1113.140578, -1809.650741) " x="-187.359422" y="1275.15074" width="2601" height="1069"></rect>
                    <polygon id="矩形备份-2" fill="url(#linearGradient-5)" transform="translate(1283.648050, 1015.041966) scale(-1, 1) rotate(-300.000000) translate(-1283.648050, -1015.041966) " points="401.572109 513.735461 2165.72399 512.758379 1585.73544 1517.32802 401.572109 1516.73546"></polygon>
                    <rect id="矩形备份-3" fill="url(#linearGradient-6)" transform="translate(1569.531996, 1017.800345) scale(-1, 1) translate(-1569.531996, -1017.800345) " x="373.531996" y="507.800345" width="2392" height="1020"></rect>
                </g>
            </g>
        </g>
        <g id="形状结合" transform="translate(341.000000, 1132.996472)">
            <path d="M55.5194308,328.597465 L498.467104,98.0134261 C522.329104,85.5916509 551.742302,94.2766002 565.029717,117.667628 L751.855372,446.553581 C765.494782,470.564258 757.087209,501.085684 733.076533,514.725094 C732.858553,514.848919 732.639646,514.971102 732.419828,515.091634 L305.31546,749.284842 C281.883614,762.133174 252.490623,754.285147 238.581911,731.46676 L35.9129516,398.971638 C21.5404951,375.392439 29.0040343,344.626544 52.583233,330.254088 C53.5430655,329.669032 54.5223546,329.11651 55.5194308,328.597465 Z" id="蒙版" fill="#FFFFFF" transform="translate(392.499181, 424.001764) rotate(-97.000000) translate(-392.499181, -424.001764) "></path>
            <path d="M285.21177,115.777127 L353.915737,186.868126 C362.229115,182.960146 371.514117,180.77574 381.309625,180.77574 C416.896806,180.77574 445.745916,209.607193 445.745916,245.172593 C445.745916,255.758694 443.189985,265.748191 438.661211,274.558353 L508.969932,347.310644 C517.483881,343.165225 527.048022,340.839358 537.155731,340.839358 C572.742912,340.839358 601.592022,369.670811 601.592022,405.236211 C601.592022,440.801611 572.742912,469.633064 537.155731,469.633064 C501.568551,469.633064 472.719441,440.801611 472.719441,405.236211 C472.719441,394.654106 475.273443,384.668155 479.799018,375.860429 L409.500835,303.095526 C409.195709,303.244126 408.889234,303.390389 408.581433,303.534292 L436.381414,501.216737 C467.29293,505.95563 490.967289,532.647721 490.967289,564.865871 C490.967289,600.431271 462.118179,629.262724 426.530999,629.262724 C390.943818,629.262724 362.094708,600.431271 362.094708,564.865871 C362.094708,539.076245 377.264063,516.827444 399.172119,506.544959 L371.364169,308.807084 C340.49918,304.028103 316.873335,277.357716 316.873335,245.172593 C316.873335,234.264258 319.587236,223.9894 324.377066,214.985601 L256.189766,144.405322 L285.21177,115.777127 Z" fill="#2663EB" transform="translate(373.364138, 329.284140) rotate(8.000000) translate(-373.364138, -329.284140) "></path>
        </g>
        <path d="M1429.21854,1700.92633 C1419.76727,1706.32146 1412.17124,1708.78693 1406.43046,1708.32273 C1403,1708.06393 1399.2895,1706.30221 1395.29896,1703.03757 L1395.29896,1717.27508 L1366,1734 L1366,1581.02464 L1395.82403,1564 L1395.82403,1618.4559 C1399.60454,1611.03239 1403.7701,1604.63616 1408.32072,1599.26721 C1413.71145,1592.72587 1420.57237,1587.07735 1428.9035,1582.32164 C1443.95553,1573.72938 1455.73463,1572.37483 1464.24078,1578.25797 C1472.74693,1584.14111 1477,1595.56976 1477,1612.54393 C1477,1630.14164 1472.79943,1647.1234 1464.3983,1663.48922 C1455.99716,1679.85504 1444.27058,1692.33408 1429.21854,1700.92633 Z M1446,1632.11511 C1446,1623.90714 1444.9441,1617.72656 1442.8323,1613.57338 C1438.81988,1605.71064 1431.42857,1604.90166 1420.65839,1611.14642 C1409.74741,1617.47281 1402.25052,1626.80812 1398.1677,1639.15235 C1396.0559,1645.6837 1395,1653.1595 1395,1661.57975 C1395,1671.48593 1397.18219,1678.42863 1401.54658,1682.40785 C1405.91097,1686.38707 1412.56315,1685.7849 1421.50311,1680.60134 C1429.24638,1676.11165 1435.26501,1669.47318 1439.55901,1660.68594 C1443.853,1651.8987 1446,1642.37509 1446,1632.11511 Z M1572.72358,1599.56376 C1572.44173,1600.07308 1571.73713,1601.52063 1570.60976,1603.9064 C1569.48238,1606.29218 1568.14363,1608.58947 1566.5935,1610.79827 C1561.87263,1617.67399 1557.3103,1623.13495 1552.9065,1627.18115 C1548.50271,1631.22735 1543.34146,1634.93905 1537.42276,1638.31625 C1520.37127,1648.04582 1508.88618,1648.53532 1502.96748,1639.78474 C1499.65583,1634.98318 1498,1626.06546 1498,1613.03157 L1498,1544.34233 L1528.86179,1526.73261 L1528.86179,1595.42186 C1528.86179,1601.90395 1529.63686,1606.34069 1531.18699,1608.73208 C1533.93496,1612.94918 1539.3252,1612.76606 1547.35772,1608.18271 C1557.64499,1602.3128 1564.69106,1594.18003 1568.49593,1583.78438 C1570.46883,1578.19785 1571.45528,1571.74534 1571.45528,1564.42685 L1571.45528,1502.42879 L1602,1485 L1602,1598.95933 L1572.72358,1615.66444 L1572.72358,1599.56376 Z M1682.89858,1459.28117 C1672.7025,1465.11099 1665.70588,1473.39808 1661.90872,1484.14245 C1659.93982,1489.79879 1658.95538,1496.14688 1658.95538,1503.18672 L1658.95538,1564.87239 L1629,1582 L1629,1468.24743 L1658.00609,1451.6626 L1658.00609,1468.28637 C1661.87356,1460.22014 1665.53009,1453.91252 1668.97566,1449.36349 C1675.16362,1441.22511 1683.00406,1434.44204 1692.49696,1429.01427 C1704.38066,1422.21952 1714.1021,1419.74537 1721.66126,1421.59183 C1729.22042,1423.43829 1733,1431.5059 1733,1445.79468 L1733,1522.53584 L1702.20081,1540.14592 L1702.20081,1470.82794 C1702.20081,1464.83363 1701.39216,1460.69571 1699.77485,1458.41418 C1696.8215,1454.2479 1691.19608,1454.5369 1682.89858,1459.28117 Z M1865,1293 L1865,1446.94334 L1836.04802,1463.65344 L1836.04802,1447.8617 C1831.79755,1457.07783 1826.9548,1464.78821 1821.51977,1470.99284 C1816.08475,1477.19746 1809.3258,1482.63235 1801.24294,1487.29751 C1787.93409,1494.97892 1776.73305,1496.05785 1767.63983,1490.5343 C1758.54661,1485.01075 1754,1473.81276 1754,1456.94035 C1754,1437.48827 1758.47693,1419.60064 1767.43079,1403.27746 C1776.38465,1386.95428 1788.35217,1374.46938 1803.33333,1365.82276 C1810.23164,1361.8413 1816.36347,1359.81864 1821.72881,1359.7548 C1827.09416,1359.69095 1831.44915,1361.37807 1834.79379,1364.81616 L1834.79379,1310.434 L1865,1293 Z M1784,1437.40715 C1784,1448.07859 1786.09446,1455.37157 1790.28337,1459.28611 C1794.40246,1463.31208 1800.68583,1462.85875 1809.13347,1457.92614 C1817.58111,1452.99352 1824.00411,1446.06287 1828.40246,1437.13419 C1832.80082,1428.20551 1835,1418.68814 1835,1408.58208 C1835,1394.44773 1831.47433,1386.40032 1824.423,1384.43985 C1820.09446,1383.29238 1815.06776,1384.39002 1809.34292,1387.73279 C1800.61602,1392.82847 1794.21047,1399.90794 1790.12628,1408.97119 C1786.04209,1418.03445 1784,1427.51311 1784,1437.40715 Z M1891,1278.15806 L1921,1261 L1921,1414.84194 L1891,1432 L1891,1278.15806 Z M2047.49073,1307.80247 C2046.71716,1315.00289 2043.16579,1323.89532 2036.8366,1334.47974 C2026.99119,1351.18439 2013.20762,1364.60061 1995.48589,1374.7284 C1980.85843,1383.08785 1967.95392,1385.79452 1956.77235,1382.84841 C1945.59078,1379.90231 1940,1367.90854 1940,1346.86712 C1940,1327.1495 1945.04577,1309.14673 1955.13731,1292.8588 C1965.22885,1276.57088 1978.32676,1263.8252 1994.43103,1254.62177 C2003.99514,1249.15598 2012.60987,1246.00942 2020.27522,1245.1821 C2027.94057,1244.35478 2034.26976,1246.34644 2039.26279,1251.15707 C2043.76354,1255.34327 2046.682,1261.51368 2048.01816,1269.66829 C2048.79173,1274.45172 2049.10819,1281.79562 2048.96754,1291.69997 L1970.27462,1336.67219 C1970.69657,1347.85751 1974.31827,1353.80021 1981.13973,1354.50027 C1985.28887,1354.9857 1990.28189,1353.56054 1996.11881,1350.2248 C2002.30735,1346.68811 2007.33554,1342.07271 2011.20338,1336.3786 C2013.31311,1333.29173 2015.1767,1329.61394 2016.79416,1325.34525 L2047.49073,1307.80247 Z M2018,1289.44538 C2017.50489,1281.89664 2015.08239,1277.32469 2010.73251,1275.72954 C2006.38262,1274.1344 2000.98947,1275.15509 1994.55305,1278.79161 C1987.55079,1282.74783 1982.12227,1287.96253 1978.26749,1294.43572 C1974.41272,1300.90891 1971.99022,1308.09701 1971,1316 L2018,1289.44538 Z" id="形状结合" fill="#FFFFFF" fill-rule="nonzero"></path>
    </g>
</svg>
