<svg class="svg" xmlns="http://www.w3.org/2000/svg" viewBox="0 0 96 120" style="enable-background:new 0 0 96 96;" xml:space="preserve"><style type="text/css">.st0{fill-rule:evenodd;clip-rule:evenodd;}</style><path class="st0" d="M7.332,63.793c0.29,0.771-0.099,1.631-0.87,1.922c-0.771,0.29-1.631-0.099-1.922-0.87  c-3.369-8.911-3.763-18.591-1.332-27.598C7.306,22.069,19.123,10.13,34.147,5.831L31.918,5.04c-0.777-0.274-1.185-1.127-0.911-1.904  c0.274-0.777,1.127-1.185,1.904-0.911l7.105,2.521c0.944,0.333,1.299,1.499,0.701,2.301l-4.585,6.141  c-0.494,0.661-1.43,0.797-2.091,0.304c-0.661-0.494-0.797-1.43-0.304-2.091l2.222-2.976c-14.47,3.766-25.943,15.062-29.865,29.592  C3.821,46.435,4.188,55.476,7.332,63.793L7.332,63.793z M53.009,55.242c-0.629,0.529-1.568,0.448-2.097-0.181  c-0.529-0.629-0.448-1.568,0.181-2.097l4.73-3.986l-4.73-3.986c-0.629-0.529-0.71-1.468-0.181-2.097  c0.529-0.629,1.468-0.71,2.097-0.181l6.066,5.112c0.716,0.587,0.731,1.689,0.016,2.291L53.009,55.242L53.009,55.242z M41.969,52.964  l-4.73-3.986l4.73-3.986c0.629-0.529,0.71-1.468,0.181-2.097c-0.529-0.629-1.468-0.71-2.097-0.181l-6.066,5.112  c-0.716,0.587-0.731,1.689-0.016,2.291l6.082,5.125c0.629,0.529,1.568,0.448,2.097-0.181C42.679,54.431,42.598,53.493,41.969,52.964  L41.969,52.964z M46.107,56.328c-0.213,0.797-1.031,1.27-1.828,1.057c-0.797-0.213-1.27-1.031-1.057-1.828l3.733-13.93  c0.213-0.797,1.031-1.27,1.828-1.057c0.797,0.213,1.27,1.031,1.057,1.828L46.107,56.328L46.107,56.328z M20.902,55.094  c0.645,2.712,1.721,5.303,3.183,7.677l-2.216,4.988l5.879,5.88l4.987-2.215c2.374,1.462,4.966,2.537,7.679,3.183l1.959,5.089h8.315  l1.96-5.091c2.712-0.645,5.303-1.721,7.677-3.183l4.988,2.216l5.879-5.879l-2.215-4.987c1.462-2.374,2.538-4.966,3.183-7.679  l5.089-1.959V44.82l-5.091-1.96c-0.646-2.712-1.721-5.303-3.183-7.677l2.216-4.988l-5.879-5.88l-4.987,2.215  c-2.374-1.462-4.966-2.537-7.679-3.183l-1.959-5.09h-8.315l-1.959,5.09c-2.713,0.645-5.303,1.721-7.677,3.183l-4.988-2.215  l-5.88,5.879l2.216,4.988c-1.462,2.374-2.537,4.965-3.183,7.677l-5.091,1.96v8.314L20.902,55.094L20.902,55.094z M28.444,48.977  c0,9.99,8.097,18.087,18.087,18.087c9.99,0,18.087-8.097,18.087-18.087c0-9.99-8.097-18.087-18.087-18.087  C36.541,30.89,28.444,38.987,28.444,48.977L28.444,48.977z M20.64,76.36c0.81,0.148,1.346,0.925,1.197,1.735  c-0.148,0.81-0.925,1.346-1.735,1.197l-3.077-0.568c7.133,7.091,16.337,11.147,25.835,11.984c13.852,1.22,27.317-4.48,36.102-15.192  c0.523-0.635,1.461-0.727,2.097-0.204s0.727,1.461,0.204,2.097C71.88,88.85,57.472,94.996,42.604,93.687  c-10.145-0.893-19.98-5.221-27.616-12.785l0.354,2.991c0.097,0.819-0.489,1.562-1.308,1.659c-0.819,0.097-1.562-0.489-1.659-1.308  l-0.9-7.611c-0.116-0.987,0.759-1.823,1.752-1.641L20.64,76.36L20.64,76.36z M91.888,58.291l-1.812,1.546  c1.513-6.081,1.749-12.44,0.664-18.64C87.448,22.388,72.558,7.759,53.782,4.692c-0.813-0.132-1.579,0.42-1.711,1.232  s0.42,1.579,1.232,1.711c17.531,2.864,31.42,16.516,34.493,34.075c1.072,6.126,0.766,12.411-0.867,18.374l-1.461-3.4  c-0.326-0.758-1.204-1.108-1.962-0.783c-0.758,0.326-1.108,1.204-0.783,1.962l3.026,7.041c0.396,0.92,1.582,1.194,2.342,0.543  l5.736-4.892c0.626-0.535,0.699-1.477,0.164-2.103C93.455,57.828,92.514,57.755,91.888,58.291z"/></svg>