<svg class="svg" xmlns="http://www.w3.org/2000/svg" xmlns:xlink="http://www.w3.org/1999/xlink" version="1.1" x="0px" y="0px" viewBox="0 0 64 80" enable-background="new 0 0 64 64" xml:space="preserve"><path d="M16.407,27.425c1.198,0.609,2.539,0.932,3.877,0.932c3.252,0,6.187-1.796,7.659-4.687c2.145-4.215,0.46-9.391-3.756-11.537  c-1.198-0.61-2.54-0.932-3.879-0.932c-3.252,0-6.187,1.796-7.657,4.687C10.506,20.103,12.191,25.278,16.407,27.425z M15.325,17.248  c0.956-1.879,2.866-3.047,4.983-3.047c0.881,0,1.729,0.204,2.518,0.606c2.742,1.396,3.837,4.761,2.443,7.502  c-0.957,1.88-2.867,3.048-4.985,3.048c-0.881,0-1.728-0.204-2.517-0.605C15.026,23.355,13.93,19.989,15.325,17.248z"/><path d="M16.191,37.38l2.407-3.068c0.374,0.044,0.748,0.072,1.122,0.087l1.878,3.344c0.271,0.483,0.777,0.766,1.308,0.766  c0.154,0,0.311-0.023,0.464-0.073l5.423-1.765c0.68-0.222,1.109-0.892,1.025-1.603l-0.449-3.81c0.294-0.231,0.58-0.476,0.856-0.73  l3.75,1.063c0.688,0.193,1.421-0.125,1.746-0.763l2.587-5.083c0.325-0.639,0.152-1.418-0.411-1.86l-3.066-2.406  c0.043-0.374,0.072-0.748,0.087-1.122l3.343-1.879c0.624-0.35,0.913-1.092,0.692-1.772l-1.765-5.422  c-0.222-0.68-0.886-1.105-1.603-1.025l-3.81,0.449c-0.232-0.295-0.476-0.581-0.73-0.857l1.063-3.75  c0.196-0.689-0.124-1.421-0.763-1.746l-5.083-2.587c-0.638-0.325-1.418-0.153-1.86,0.411l-2.406,3.067  c-0.373-0.043-0.748-0.072-1.121-0.086l-1.88-3.345C18.646,1.19,17.904,0.9,17.224,1.123l-5.423,1.765  c-0.68,0.221-1.109,0.892-1.025,1.602l0.449,3.81c-0.294,0.232-0.58,0.476-0.856,0.73l-3.75-1.063  C5.928,7.771,5.198,8.09,4.873,8.729l-2.587,5.083c-0.325,0.639-0.153,1.418,0.411,1.86l3.067,2.407  c-0.043,0.373-0.072,0.747-0.086,1.121l-3.346,1.88c-0.624,0.35-0.913,1.092-0.691,1.772l1.766,5.422  c0.222,0.68,0.897,1.107,1.602,1.025l3.81-0.449c0.232,0.294,0.476,0.58,0.73,0.856l-1.064,3.75  c-0.196,0.689,0.124,1.421,0.762,1.746l5.083,2.589C14.97,38.115,15.748,37.944,16.191,37.38z M12.265,28.192  c-0.569-0.543-1.082-1.144-1.523-1.785c-0.315-0.458-0.855-0.702-1.411-0.639l-3.454,0.407l-1.004-3.083l3.033-1.704  c0.485-0.272,0.779-0.791,0.765-1.347c-0.021-0.778,0.04-1.564,0.18-2.337c0.099-0.547-0.113-1.104-0.55-1.448l-2.782-2.183  l1.468-2.884l3.401,0.964c0.536,0.151,1.11-0.004,1.494-0.407c0.542-0.567,1.143-1.079,1.785-1.522  c0.458-0.315,0.704-0.858,0.639-1.411l-0.407-3.454l3.084-1.004l1.704,3.032c0.272,0.485,0.793,0.785,1.346,0.765l0.294-0.004  c0.682,0,1.37,0.062,2.044,0.185c0.545,0.097,1.104-0.113,1.448-0.55L26.002,5l2.885,1.468L27.922,9.87  c-0.152,0.535,0.005,1.11,0.407,1.494c0.565,0.54,1.077,1.14,1.522,1.786c0.316,0.458,0.862,0.705,1.41,0.638l3.454-0.407  l1.004,3.083l-3.031,1.703c-0.485,0.272-0.779,0.791-0.765,1.347c0.021,0.777-0.04,1.564-0.181,2.339  c-0.099,0.547,0.113,1.104,0.55,1.447l2.781,2.182l-1.468,2.884l-3.402-0.964c-0.535-0.149-1.109,0.006-1.494,0.407  c-0.545,0.571-1.146,1.083-1.784,1.522c-0.458,0.315-0.704,0.859-0.639,1.411l0.407,3.453l-3.084,1.004l-1.703-3.031  c-0.266-0.473-0.766-0.765-1.308-0.765c-0.013,0-0.025,0-0.038,0l-0.289,0.003c-0.682,0-1.373-0.062-2.054-0.184  c-0.55-0.098-1.104,0.113-1.446,0.55l-2.183,2.782l-2.885-1.47l0.965-3.401C12.824,29.152,12.667,28.577,12.265,28.192z"/><path d="M61.669,39.513c0.623-0.351,0.912-1.092,0.691-1.771l-1.301-4c-0.222-0.68-0.888-1.108-1.603-1.026l-2.594,0.306  c-0.089-0.108-0.179-0.214-0.271-0.318l0.727-2.557c0.195-0.69-0.124-1.421-0.764-1.747l-3.751-1.908  c-0.637-0.325-1.417-0.152-1.86,0.411l-1.64,2.091c-0.139-0.013-0.277-0.024-0.415-0.032l-1.281-2.278  c-0.351-0.624-1.097-0.912-1.771-0.691l-4,1.302c-0.681,0.221-1.109,0.892-1.025,1.602l0.306,2.595  c-0.106,0.088-0.213,0.178-0.316,0.271l-2.559-0.725c-0.69-0.196-1.422,0.125-1.746,0.763l-1.907,3.75  c-0.325,0.638-0.152,1.417,0.411,1.859l2.091,1.642c-0.013,0.139-0.023,0.277-0.032,0.415l-2.277,1.28  c-0.624,0.351-0.913,1.092-0.691,1.772l1.303,4c0.221,0.68,0.888,1.119,1.602,1.024l2.594-0.306  c0.089,0.107,0.179,0.213,0.272,0.318l-0.727,2.555c-0.195,0.69,0.124,1.422,0.763,1.747l3.751,1.909  c0.639,0.326,1.418,0.153,1.861-0.411l1.64-2.092c0.138,0.014,0.276,0.024,0.414,0.032l1.279,2.277  c0.271,0.483,0.777,0.766,1.308,0.766c0.154,0,0.311-0.023,0.464-0.073l4.003-1.302c0.68-0.222,1.109-0.892,1.025-1.603  l-0.306-2.596c0.107-0.088,0.213-0.178,0.317-0.271l2.554,0.727c0.693,0.193,1.421-0.124,1.747-0.763l1.91-3.75  c0.325-0.639,0.153-1.419-0.411-1.861l-2.092-1.64c0.014-0.139,0.024-0.278,0.032-0.417L61.669,39.513z M57.172,38.599  c-0.485,0.273-0.78,0.793-0.764,1.35c0.015,0.541-0.027,1.094-0.127,1.645c-0.099,0.547,0.113,1.104,0.551,1.446l1.798,1.409  l-0.79,1.551l-2.196-0.624c-0.537-0.15-1.111,0.004-1.495,0.407c-0.382,0.4-0.805,0.762-1.257,1.074  c-0.456,0.315-0.701,0.857-0.636,1.409l0.262,2.227l-1.663,0.541l-1.098-1.954c-0.266-0.474-0.767-0.766-1.308-0.766  c-0.012,0-0.023,0-0.036,0l-0.198,0.003c-0.486,0-0.975-0.044-1.448-0.13c-0.553-0.104-1.106,0.112-1.449,0.55l-1.409,1.798  l-1.552-0.79l0.624-2.196c0.151-0.535-0.005-1.109-0.406-1.494c-0.408-0.391-0.768-0.812-1.069-1.253  c-0.314-0.461-0.864-0.718-1.414-0.643l-2.228,0.263l-0.541-1.661l1.955-1.099c0.486-0.272,0.781-0.793,0.765-1.351  c-0.015-0.536,0.027-1.09,0.127-1.644c0.098-0.547-0.114-1.103-0.551-1.444l-1.797-1.411l0.788-1.551l2.198,0.623  c0.53,0.149,1.106-0.004,1.491-0.404c0.388-0.404,0.812-0.766,1.261-1.075c0.457-0.315,0.702-0.858,0.637-1.41l-0.263-2.227  l1.661-0.541l1.1,1.956c0.272,0.485,0.791,0.8,1.347,0.765l0.207-0.003c0.478,0,0.962,0.044,1.439,0.13  c0.55,0.096,1.104-0.114,1.446-0.551l1.409-1.798l1.552,0.79l-0.624,2.198c-0.151,0.536,0.006,1.112,0.408,1.496  c0.396,0.377,0.757,0.8,1.071,1.256c0.315,0.457,0.854,0.713,1.41,0.637l2.227-0.262l0.54,1.661L57.172,38.599z"/><path d="M51.274,34.14c-0.939-0.479-1.991-0.73-3.041-0.73c-2.547,0-4.846,1.406-5.998,3.671c-0.813,1.598-0.956,3.419-0.399,5.129  c0.556,1.709,1.743,3.099,3.343,3.912c0.938,0.478,1.988,0.729,3.038,0.729c2.547,0,4.846-1.407,5.999-3.673  c0.813-1.598,0.955-3.419,0.398-5.127C54.059,36.342,52.872,34.953,51.274,34.14z M51.542,41.817  c-0.639,1.254-1.913,2.033-3.325,2.033c-0.587,0-1.151-0.136-1.679-0.403c-0.885-0.45-1.541-1.22-1.85-2.167  c-0.308-0.946-0.229-1.955,0.221-2.839c0.638-1.254,1.912-2.032,3.324-2.032c0.587,0,1.152,0.136,1.681,0.404  c0.884,0.45,1.54,1.219,1.848,2.165C52.07,39.925,51.992,40.934,51.542,41.817z"/><path d="M33.255,51.145c0.623-0.351,0.912-1.092,0.691-1.771l-1.033-3.175c-0.221-0.68-0.894-1.119-1.602-1.025l-1.893,0.223  c0,0-0.001-0.001-0.001-0.001l0.53-1.868c0.196-0.689-0.124-1.421-0.763-1.746l-2.976-1.515c-0.638-0.325-1.418-0.153-1.86,0.411  l-1.198,1.528c-0.001,0-0.001,0-0.002,0l-0.934-1.662c-0.351-0.623-1.093-0.912-1.771-0.691l-3.175,1.032  c-0.68,0.222-1.109,0.892-1.026,1.603l0.223,1.894l0,0.001l-1.869-0.53c-0.688-0.193-1.421,0.124-1.746,0.764l-1.514,2.977  c-0.325,0.639-0.153,1.418,0.411,1.86l1.527,1.197c0,0.001,0,0.002,0,0.002l-1.662,0.934c-0.624,0.351-0.913,1.092-0.691,1.771  l1.033,3.175c0.221,0.681,0.891,1.121,1.602,1.025l1.894-0.223c0,0,0,0,0,0.001l-0.53,1.866c-0.196,0.689,0.124,1.422,0.762,1.747  l2.977,1.516c0.638,0.325,1.418,0.153,1.861-0.411l1.199-1.527c0,0,0.001,0,0.002,0l0.932,1.661  c0.271,0.483,0.778,0.766,1.308,0.766c0.155,0,0.311-0.023,0.464-0.074l3.175-1.034c0.68-0.221,1.109-0.891,1.025-1.601  l-0.222-1.894l1.869,0.529c0.687,0.192,1.42-0.125,1.746-0.763l1.515-2.976c0.325-0.639,0.152-1.419-0.411-1.861l-1.528-1.198  v-0.001L33.255,51.145z M29.073,53.917l1.226,0.961l-0.396,0.777l-1.5-0.425c-0.532-0.149-1.107,0.004-1.491,0.405  c-0.293,0.306-0.612,0.578-0.949,0.81c-0.458,0.315-0.704,0.858-0.639,1.41l0.178,1.516l-0.836,0.272l-0.746-1.329  c-0.266-0.474-0.767-0.766-1.308-0.766c-0.013,0-0.026,0-0.04,0.001l-0.16,0.002c-0.361,0-0.725-0.033-1.083-0.098  c-0.548-0.102-1.104,0.112-1.448,0.55l-0.962,1.226l-0.778-0.396l0.426-1.499c0.152-0.535-0.004-1.111-0.407-1.495  c-0.302-0.289-0.575-0.607-0.811-0.948c-0.316-0.457-0.864-0.71-1.409-0.637l-1.516,0.178l-0.272-0.836l1.33-0.747  c0.485-0.272,0.779-0.791,0.765-1.347c-0.011-0.41,0.021-0.829,0.096-1.245c0.098-0.546-0.114-1.103-0.551-1.445l-1.226-0.961  l0.396-0.778l1.499,0.426c0.532,0.149,1.108-0.005,1.492-0.405c0.29-0.303,0.61-0.575,0.952-0.812  c0.457-0.316,0.702-0.858,0.637-1.41l-0.179-1.516l0.835-0.271l0.748,1.331c0.273,0.484,0.812,0.806,1.347,0.764l0.159-0.002  c0.361,0,0.726,0.033,1.083,0.098c0.547,0.101,1.104-0.112,1.448-0.55l0.962-1.227l0.777,0.396l-0.425,1.499  c-0.152,0.535,0.005,1.11,0.407,1.494c0.299,0.286,0.571,0.605,0.809,0.949c0.316,0.459,0.866,0.715,1.411,0.638l1.516-0.179  l0.271,0.836l-1.33,0.748c-0.484,0.272-0.778,0.79-0.764,1.346c0.01,0.413-0.022,0.832-0.096,1.246  C28.425,53.018,28.636,53.574,29.073,53.917z"/><path d="M24.994,46.334c-0.789-0.401-1.671-0.613-2.553-0.613c-2.139,0-4.069,1.182-5.037,3.084  c-0.684,1.342-0.803,2.871-0.335,4.306c0.467,1.436,1.464,2.602,2.805,3.284c0.789,0.401,1.671,0.613,2.553,0.613  c2.139,0,4.069-1.182,5.037-3.084C28.875,51.15,27.767,47.746,24.994,46.334z M24.79,52.563c-0.642,1.261-2.278,1.81-3.555,1.157  c-0.628-0.319-1.095-0.866-1.314-1.539c-0.219-0.673-0.164-1.389,0.156-2.016c0.454-0.892,1.359-1.445,2.364-1.445  c0.417,0,0.818,0.097,1.192,0.287C24.932,49.669,25.451,51.265,24.79,52.563z"/></svg>