<?xml version="1.0" encoding="UTF-8"?>
<svg width="512px" height="512px" viewBox="0 0 512 512" version="1.1" xmlns="http://www.w3.org/2000/svg" xmlns:xlink="http://www.w3.org/1999/xlink">
    <title>gitbundle</title>
    <defs>
        <linearGradient x1="36.3165504%" y1="6.77516519%" x2="79.6163697%" y2="82.8523469%" id="linearGradient-1">
            <stop stop-color="#4982FF" stop-opacity="0.5" offset="0%"></stop>
            <stop stop-color="#2994FF" offset="100%"></stop>
        </linearGradient>
        <path d="M307.329436,86.9896904 L462.658873,176.669182 C471.940905,182.028166 477.658873,191.931977 477.658873,202.649944 L477.658873,382.008928 C477.658873,392.726896 471.940905,402.630707 462.658873,407.98969 L307.329436,497.669182 C298.047404,503.028166 286.611469,503.028166 277.329436,497.669182 L122,407.98969 C112.717968,402.630707 107,392.726896 107,382.008928 L107,202.649944 C107,191.931977 112.717968,182.028166 122,176.669182 L277.329436,86.9896904 C286.611469,81.6307066 298.047404,81.6307066 307.329436,86.9896904 Z" id="path-2"></path>
        <linearGradient x1="50%" y1="0%" x2="50%" y2="100%" id="linearGradient-4">
            <stop stop-color="#2563EB" stop-opacity="0.5" offset="0%"></stop>
            <stop stop-color="#2563EB" offset="100%"></stop>
        </linearGradient>
        <linearGradient x1="50%" y1="0%" x2="50%" y2="100%" id="linearGradient-5">
            <stop stop-color="#2563EB" stop-opacity="0.5" offset="0%"></stop>
            <stop stop-color="#2563EB" offset="100%"></stop>
        </linearGradient>
        <linearGradient x1="40.2813556%" y1="41.4550295%" x2="64.0438063%" y2="60.6668141%" id="linearGradient-6">
            <stop stop-color="#2994FF" offset="0%"></stop>
            <stop stop-color="#2563EB" stop-opacity="0.5" offset="100%"></stop>
        </linearGradient>
    </defs>
    <g id="gitbundle" stroke="none" stroke-width="1" fill="none" fill-rule="evenodd">
        <g id="编组" transform="translate(-36.000000, -36.000000)">
            <g id="编组-13">
                <g id="矩形" transform="translate(292.329436, 292.329436) rotate(-90.000000) translate(-292.329436, -292.329436) ">
                    <mask id="mask-3" fill="white">
                        <use xlink:href="#path-2" transform="translate(292.329436, 292.329436) rotate(-330.000000) translate(-292.329436, -292.329436) "></use>
                    </mask>
                    <use id="蒙版" fill="url(#linearGradient-1)" transform="translate(292.329436, 292.329436) rotate(-330.000000) translate(-292.329436, -292.329436) " xlink:href="#path-2"></use>
                    <g id="编组-12" mask="url(#mask-3)">
                        <g transform="translate(5.614660, 0.016196)">
                            <rect id="矩形" fill="url(#linearGradient-4)" transform="translate(200.700617, 348.623665) rotate(-300.000000) translate(-200.700617, -348.623665) " x="-22.2993834" y="245.623665" width="446" height="206"></rect>
                            <polygon id="矩形备份-2" fill="url(#linearGradient-5)" transform="translate(226.348313, 193.272349) scale(-1, 1) rotate(-300.000000) translate(-226.348313, -193.272349) " points="62.6437048 90.2723491 390.052921 108.430283 281.918622 295.724382 62.6437048 296.272349"></polygon>
                            <rect id="矩形备份-3" fill="url(#linearGradient-6)" transform="translate(287.700617, 189.623665) scale(-1, 1) translate(-287.700617, -189.623665) " x="64.7006166" y="86.623665" width="446" height="206"></rect>
                        </g>
                    </g>
                </g>
                <g id="形状结合" transform="translate(97.564354, 256.618059)">
                    <path d="M59.6588554,55.2003566 L139.096166,9.33720389 C143.879092,6.57578014 149.994996,8.21453169 152.75642,12.9974579 C153.634103,14.51765 154.096166,16.2420913 154.096166,17.9974579 L154.096166,107.27626 C154.096166,113.707041 150.665385,119.649327 145.096166,122.864718 L65.6588554,168.72787 C60.8759292,171.489294 54.7600251,169.850542 51.9986014,165.067616 C51.1209181,163.547424 50.6588554,161.822983 50.6588554,160.067616 L50.6588554,70.7888138 C50.6588554,64.3580332 54.0896361,58.4157469 59.6588554,55.2003566 Z" id="蒙版" fill="#FFFFFF" transform="translate(102.377511, 89.032537) rotate(-60.000000) translate(-102.377511, -89.032537) "></path>
                    <path d="M63.320078,23.8659694 L81.1924213,41.7382509 C82.9961243,40.7916699 85.0493797,40.2561427 87.2277141,40.2561427 C94.4107235,40.2561427 100.233703,46.0791223 100.233703,53.2621317 C100.233703,55.4400622 99.6983746,57.49296 98.7521215,59.296421 L113.920869,74.4655797 C115.591975,73.6842251 117.456611,73.247754 119.423191,73.247754 C126.6062,73.247754 132.42918,79.0707336 132.42918,86.253743 C132.42918,93.4367524 126.6062,99.259732 119.423191,99.259732 C112.240182,99.259732 106.417202,93.4367524 106.417202,86.253743 C106.417202,84.0802565 106.950348,82.0312929 107.892996,80.2304965 L92.7151047,65.0572648 C92.0230689,65.3797652 91.2979361,65.6431548 90.5461972,65.8409427 L90.5457647,107.366641 C96.1620231,108.805855 100.313438,113.901255 100.313438,119.966269 C100.313438,127.149279 94.4904579,132.972258 87.3074485,132.972258 C80.1244391,132.972258 74.3014595,127.149279 74.3014595,119.966269 C74.3014595,114.250459 77.9885851,109.395824 83.1141131,107.651086 L83.1138063,65.6040646 C77.9469855,63.8826348 74.2217251,59.0074239 74.2217251,53.2621317 C74.2217251,51.3022356 74.6552345,49.4435911 75.4315961,47.7768552 L60.8255604,33.1756356 L63.320078,23.8659694 Z" fill="#2663EB" transform="translate(85.121375, 71.561957) rotate(-15.000000) translate(-85.121375, -71.561957) "></path>
                </g>
            </g>
            <path d="M329.346958,466.715891 C329.784221,466.843248 330.520913,466.600689 331.557034,465.988213 C333.020913,465.12288 334,464.03462 334.494297,462.723431 C334.81749,461.879434 334.979087,460.685767 334.979087,459.14243 L334.979087,458.103646 C334.589354,459.02655 334.171103,459.79318 333.724335,460.403537 C332.91635,461.524212 331.86597,462.466645 330.573194,463.230836 C328.576996,464.410836 326.982414,464.623808 325.789449,463.869754 C324.596483,463.1157 324,461.492133 324,458.999051 C324,456.595008 324.575095,454.234373 325.725285,451.917147 C326.875475,449.59992 328.505703,447.817593 330.61597,446.570165 C331.395437,446.109403 332.075095,445.831306 332.654943,445.735874 C333.643536,445.5769 334.442015,445.886461 335.05038,446.664558 L335.05038,444.334714 L339,442 L339,457.344325 C339,459.431786 338.662548,461.204278 337.987643,462.661801 C336.827947,465.16767 334.603612,467.3927 331.314639,469.33689 C329.327947,470.511271 327.707224,471.063698 326.452471,470.994171 C325.197719,470.924644 324.503802,470.12292 324.370722,468.588998 L328.790875,465.976141 C328.904943,466.403372 329.090304,466.649955 329.346958,466.715891 Z M328.468619,459.096345 C329.034868,460.187323 330.050209,460.290452 331.514644,459.405731 C332.490934,458.815917 333.3159,457.925506 333.98954,456.734499 C334.66318,455.543492 335,454.091262 335,452.377807 C335,450.768199 334.680265,449.735983 334.040795,449.281161 C333.401325,448.826339 332.54463,448.923326 331.470711,449.572122 C330.006276,450.456843 328.995816,451.799413 328.439331,453.599832 C328.146444,454.555619 328,455.604664 328,456.746967 C328,457.733501 328.156206,458.516627 328.468619,459.096345 Z M348,437 L348,453.513258 L344,456 L344,439.486742 L348,437 Z M348,431 L348,435.310024 L344,438 L344,433.689976 L348,431 Z M359,443.173481 L359,446.361866 L357.011457,447.584472 C355.027823,448.799255 353.672668,449.232158 352.94599,448.883181 C352.474632,448.666257 352.238953,448.048851 352.238953,447.030963 L352.238953,436.986801 L350,438.279095 L350,435.240399 L352.238953,433.948105 L352.238953,429.397546 L356.392799,427 L356.392799,431.550559 L359,430.045717 L359,433.084412 L356.392799,434.589255 L356.392799,443.211367 C356.392799,443.87998 356.476268,444.248438 356.643208,444.316741 C356.810147,444.385044 357.320786,444.17264 358.175123,443.679527 C358.302782,443.605844 358.437807,443.525415 358.580196,443.43824 C358.722586,443.351065 358.86252,443.262812 359,443.173481 Z M370.543046,440.401925 C369.265847,441.153052 368.239357,441.492241 367.463576,441.419492 C367,441.378648 366.498581,441.124954 365.959319,440.658409 L365.959319,442.671506 L362,445 L362,423.370223 L366.030274,421 L366.030274,428.69973 C366.541154,427.654776 367.104068,426.755551 367.719016,426.002053 C368.447493,425.083828 369.374645,424.293663 370.500473,423.631558 C372.534532,422.435319 374.126301,422.25839 375.275781,423.10077 C376.42526,423.94315 377,425.564362 377,427.964405 C377,430.452613 376.432356,432.848526 375.297067,435.152142 C374.161779,437.455758 372.577105,439.205686 370.543046,440.401925 Z M373,430.568208 C373,429.407449 372.855072,428.532073 372.565217,427.942079 C372.014493,426.825092 371,426.701382 369.521739,427.570947 C368.024155,428.451878 366.995169,429.762625 366.434783,431.503186 C366.144928,432.424179 366,433.480065 366,434.670844 C366,436.071759 366.299517,437.056331 366.898551,437.62456 C367.497585,438.192789 368.410628,438.116006 369.637681,437.39421 C370.700483,436.769033 371.52657,435.837809 372.115942,434.600537 C372.705314,433.363266 373,432.019156 373,430.568208 Z M389.777439,426.120447 C389.736789,426.196361 389.635163,426.412244 389.472561,426.768096 C389.309959,427.123947 389.11687,427.466269 388.893293,427.79506 C388.212398,428.818681 387.55437,429.630613 386.919207,430.230857 C386.284045,430.831101 385.539634,431.380251 384.685976,431.878309 C382.226626,433.313188 380.570122,433.371433 379.716463,432.053044 C379.238821,431.329541 379,429.991711 379,428.039553 L379,417.751577 L383.45122,415.154564 L383.45122,425.442541 C383.45122,426.4134 383.563008,427.078932 383.786585,427.439138 C384.182927,428.074363 384.960366,428.054008 386.118902,427.378073 C387.602642,426.512402 388.618902,425.303556 389.167683,423.751533 C389.452236,422.917396 389.594512,421.952261 389.594512,420.85613 L389.594512,411.570331 L394,409 L394,426.068332 L389.777439,428.531937 L389.777439,426.120447 Z M404.773834,405.689775 C403.303245,406.549572 402.294118,407.781631 401.74645,409.385953 C401.462475,410.230584 401.320487,411.18012 401.320487,412.234562 L401.320487,421.473976 L397,424 L397,406.961893 L401.18357,404.51592 L401.18357,407.005864 C401.741379,405.802773 402.268763,404.862811 402.76572,404.185978 C403.658215,402.975129 404.789047,401.969455 406.158215,401.168954 C407.872211,400.166846 409.274341,399.809045 410.364604,400.095551 C411.454868,400.382057 412,401.595412 412,403.735615 L412,415.230073 L407.557809,417.827252 L407.557809,407.444656 C407.557809,406.546815 407.441176,405.925964 407.207911,405.582105 C406.781947,404.954188 405.970588,404.990078 404.773834,405.689775 Z M430,382 L430,404.294002 L426.087571,406.676796 L426.087571,404.389844 C425.513183,405.719066 424.858757,406.829465 424.124294,407.721041 C423.389831,408.612617 422.47646,409.391022 421.384181,410.056254 C419.585687,411.151594 418.072034,411.293471 416.84322,410.481883 C415.614407,409.670296 415,408.042774 415,405.599319 C415,402.782278 415.604991,400.197546 416.814972,397.845121 C418.024953,395.492696 419.642185,393.699997 421.666667,392.467022 C422.59887,391.899281 423.427495,391.61423 424.152542,391.611869 C424.877589,391.609508 425.466102,391.859425 425.918079,392.361619 L425.918079,384.48602 L430,382 Z M419,403.505568 C419,405.014624 419.287474,406.048586 419.862423,406.607453 C420.427789,407.181991 421.290212,407.125852 422.449692,406.439035 C423.609172,405.752219 424.49076,404.780293 425.094456,403.523257 C425.698152,402.266221 426,400.92315 426,399.494044 C426,397.495293 425.516085,396.352834 424.548255,396.066664 C423.954141,395.898911 423.264203,396.047758 422.478439,396.513203 C421.28063,397.222724 420.401437,398.215717 419.840862,399.492182 C419.280287,400.768647 419,402.106443 419,403.505568 Z M434,380.374835 L438,378 L438,399.625165 L434,402 L434,380.374835 Z M455.792303,384.099663 C455.685848,385.138483 455.197126,386.418122 454.326137,387.93858 C452.971265,390.338393 451.074444,392.25834 448.635673,393.698421 C446.62272,394.88706 444.84687,395.261575 443.308122,394.821965 C441.769374,394.382356 441,392.643275 441,389.604722 C441,386.757336 441.694372,384.163982 443.083116,381.824659 C444.47186,379.485336 446.274324,377.661352 448.490508,376.352707 C449.80667,375.57552 450.992183,375.132047 452.047048,375.022288 C453.101913,374.912529 453.972903,375.208159 454.660016,375.90918 C455.279387,376.519404 455.681009,377.414159 455.864885,378.593445 C455.971339,379.285192 456.014889,380.346111 455.995533,381.776202 L445.166232,388.170849 C445.224298,389.786637 445.722698,390.649399 446.661431,390.759137 C447.232413,390.834494 447.919527,390.635016 448.722772,390.160703 C449.574406,389.657818 450.266359,388.997687 450.79863,388.180312 C451.08896,387.737215 451.345418,387.208474 451.568004,386.59409 L455.792303,384.099663 Z M452,382.144746 C451.92626,381.031082 451.565463,380.35387 450.917607,380.113109 C450.269752,379.872348 449.466516,380.015946 448.507901,380.543904 C447.465011,381.118276 446.656509,381.880219 446.082393,382.829733 C445.508277,383.779248 445.147479,384.836003 445,386 L452,382.144746 Z" id="形状结合" fill="#1448B9" fill-rule="nonzero"></path>
        </g>
    </g>
</svg>